<svg fill="none" height="424" viewBox="0 0 430 424" width="430" xmlns="http://www.w3.org/2000/svg" xmlns:xlink="http://www.w3.org/1999/xlink"><clipPath id="a"><path d="m0 0h430v424h-430z"/></clipPath><g clip-path="url(#a)"><path d="m0 423.597h429.054v-3.639h-429.054zm0-30h429.054v-3.638h-429.054zm0-29.999h429.054v-3.639h-429.054zm0-30h429.054v-3.638h-429.054zm0-29.999h429.054v-3.639h-429.054zm0-30h429.054v-3.638h-429.054zm0-29.999h429.054v-3.639h-429.054zm0-30h429.054v-3.638h-429.054zm0-29.999h429.054v-3.639h-429.054zm0-29.965h429.054v-3.639h-429.054zm0-30h429.054v-3.638h-429.054zm0-29.9993h429.054v-3.6384h-429.054zm0-29.9995h429.054v-3.6383h-429.054zm0-29.9995h429.054v-3.6383h-429.054zm0-29.99946h429.054v-3.63839259h-429.054z" fill="#e6372e"/></g></svg>